HIERARCHY
ROOT Hips
{
    OFFSET 0.0 0.0 0.0
    CHANNELS 6 Xposition Yposition Zposition Zrotation Xrotation Yrotation
    JOINT LeftHipJoint
    {
        OFFSET 0.1 0.0 0.0
        CHANNELS 3 Zrotation Xrotation Yrotation
        JOINT LeftUpLeg
        {
            OFFSET 131.67882175187515 0.0 0.0
            CHANNELS 3 Zrotation Xrotation Yrotation
            JOINT LeftLeg
            {
                OFFSET 0.0 0.0 -427.4324122246664
                CHANNELS 3 Zrotation Xrotation Yrotation
                JOINT LeftFoot
                {
                    OFFSET 0.0 0.0 -377.03387437382594
                    CHANNELS 3 Zrotation Xrotation Yrotation
                    End Site
                    {
                        OFFSET 0.0 -0.1 0.0
                    }
                }
            }
        }
    }
    JOINT LowerBack
    {
        OFFSET 0.0 0.0 0.1
        CHANNELS 3 Zrotation Xrotation Yrotation
        JOINT Spine
        {
            OFFSET 0.0 0.0 233.4442947809538
            CHANNELS 3 Zrotation Xrotation Yrotation
            JOINT Spine1
            {
                OFFSET 0.0 0.0 251.05617830761742
                CHANNELS 3 Zrotation Xrotation Yrotation
                JOINT LeftShoulder
                {
                    OFFSET 0.1 0.0 0.0
                    CHANNELS 3 Zrotation Xrotation Yrotation
                    JOINT LeftArm
                    {
                        OFFSET 149.6293578162429 0.0 0.0
                        CHANNELS 3 Zrotation Xrotation Yrotation
                        JOINT LeftForeArm
                        {
                            OFFSET 277.6743677730922 0.0 0.0
                            CHANNELS 3 Zrotation Xrotation Yrotation
                            JOINT LeftHand
                            {
                                OFFSET 252.96004602316188 0.0 0.0
                                CHANNELS 3 Zrotation Xrotation Yrotation
                                End Site
                                {
                                    OFFSET 0.1 0.0 0.0
                                }
                            }
                        }
                    }
                }
                JOINT Neck
                {
                    OFFSET 0.0 0.0 0.1
                    CHANNELS 3 Zrotation Xrotation Yrotation
                    JOINT Neck1
                    {
                        OFFSET 0.0 0.0 104.92716787100719
                        CHANNELS 3 Zrotation Xrotation Yrotation
                        End Site
                        {
                            OFFSET 0.0 0.0 107.47634046208702
                        }
                    }
                }
                JOINT RightShoulder
                {
                    OFFSET -0.1 0.0 0.0
                    CHANNELS 3 Zrotation Xrotation Yrotation
                    JOINT RightArm
                    {
                        OFFSET -149.6293578162429 0.0 0.0
                        CHANNELS 3 Zrotation Xrotation Yrotation
                        JOINT RightForeArm
                        {
                            OFFSET -277.6743677730922 0.0 0.0
                            CHANNELS 3 Zrotation Xrotation Yrotation
                            JOINT RightHand
                            {
                                OFFSET -252.96004602316188 0.0 0.0
                                CHANNELS 3 Zrotation Xrotation Yrotation
                                End Site
                                {
                                    OFFSET -0.1 0.0 0.0
                                }
                            }
                        }
                    }
                }
            }
        }
    }
    JOINT RightHipJoint
    {
        OFFSET -0.1 0.0 0.0
        CHANNELS 3 Zrotation Xrotation Yrotation
        JOINT RightUpLeg
        {
            OFFSET -131.67882175187515 0.0 0.0
            CHANNELS 3 Zrotation Xrotation Yrotation
            JOINT RightLeg
            {
                OFFSET 0.0 0.0 -427.4324122246664
                CHANNELS 3 Zrotation Xrotation Yrotation
                JOINT RightFoot
                {
                    OFFSET 0.0 0.0 -377.03387437382594
                    CHANNELS 3 Zrotation Xrotation Yrotation
                    End Site
                    {
                        OFFSET 0.0 -0.1 0.0
                    }
                }
            }
        }
    }
}
MOTION
Frames: 5
Frame Time: 0.03333333333333333
0.0 0.0 812.2012532178227 32.73117910710508 -24.621776069420765 7.706904341571838 0.0 0.0 0.0 0.4469357219837749 13.119177908840932 -1.913941010381511 0.015097946033248887 26.590319448705586 -4.681518327192783 0.0 0.0 3.975693351829396e-16 0.0 0.0 0.0 0.5786042801155674 16.9872212030235 -1.7463397692410503 -3.82759109819525 2.2119659593007457e-15 -7.216707922657942e-16 0.0 0.0 0.0 -94.43511128793257 11.028118029118707 54.13440718762947 -102.84383180131248 8.939519319913284e-15 1.0061903314647189e-15 0.0 0.0 0.0 0.0 0.0 0.0 -6.536068432317928 6.676632735263085 -7.9849464633632214 0.0 0.0 0.0 38.068227343447724 -36.04139633906875 -65.02521247677988 140.0745389626322 -2.0809663600067545e-14 -1.432652273253592e-14 0.0 0.0 0.0 0.0 0.0 0.0 0.6246113048514669 18.40169440043609 -8.831260857154083 -2.8352738365545287 22.42221874120768 9.258486924423048 0.0 0.0 3.975693351829396e-16
0.0 0.0 812.2012532178227 32.73671944118868 -24.60300165841178 7.8058258698553145 0.0 0.0 0.0 0.45036983960292765 13.03103309679564 -2.100253125144483 -0.06387124875995795 26.528283271404067 -4.647008491450748 0.0 0.0 7.951386703658792e-16 0.0 0.0 0.0 0.5870231262702563 16.981963946253263 -1.8663827983503347 -3.9003753372761203 -1.4177457726164368e-15 7.473247545361708e-16 0.0 0.0 0.0 -94.41656386303741 11.033451569807948 54.16288310677126 -102.75398937092598 -1.1425177119273326e-14 9.860998206909546e-16 1.5902773407317584e-15 0.0 0.0 0.0 0.0 0.0 -6.554493643159513 6.701536046391357 -8.121909294031303 0.0 0.0 0.0 37.896831134146275 -36.06440424326825 -65.06313947934403 140.14911099943063 1.3081935733624156e-14 4.742166530356992e-15 0.0 0.0 0.0 0.0 0.0 0.0 0.6355089330604218 18.441926415307677 -8.928904499421286 -2.8087296385540035 22.034638291214645 9.040083148245314 0.0 0.0 -7.951386703658792e-16
0.0 0.0 812.2012532178227 32.67487801458645 -24.585252269275795 7.848309732709763 0.0 0.0 0.0 0.4496559734038258 12.939529354403948 -2.2301134043242725 -0.12327588150164528 26.51871053646068 -4.663277331257672 0.0 0.0 3.975693351829396e-16 0.0 0.0 0.0 0.5907689720696212 16.990576262358722 -1.955922161352112 -3.939701986661217 9.07668278001015e-16 -3.6658613011796085e-16 0.0 0.0 0.0 -94.40801947524528 11.069362128539511 54.24203857974269 -102.64671903367045 -2.483012139999186e-15 1.987606297634457e-15 0.0 0.0 -1.5902773407317584e-15 0.0 0.0 0.0 -6.639169284920498 6.720321339974272 -8.198294864772146 0.0 0.0 0.0 37.74983706889191 -36.11316581067093 -65.07352910787255 140.25993215670255 1.0026107863554599e-14 -9.904098103181708e-15 0.0 0.0 0.0 0.0 0.0 0.0 0.6384233127969342 18.41817065167549 -9.005159630178907 -2.8075587662666597 21.83933563034416 8.89840770666007 0.0 0.0 -7.951386703658792e-16
0.0 0.0 812.2012532178227 32.63629440265954 -24.578810642623477 7.886709668140162 0.0 0.0 7.951386703658792e-16 0.4457461013426804 12.927584666897868 -2.401060471256645 -0.21450286584614026 26.350982148315918 -4.625906996797657 0.0 0.0 -3.975693351829396e-16 0.0 0.0 7.951386703658792e-16 0.5847832385025662 16.948244654987906 -2.0787313750335232 -4.0114134254811855 -6.953200848217045e-16 -2.435045162443796e-17 0.0 0.0 0.0 -94.36765829968296 11.039867492935745 54.24931095534833 -102.54353731176481 2.4812214325502503e-15 -1.9898412711653087e-15 0.0 0.0 -7.951386703658792e-16 0.0 0.0 0.0 -6.723315181294372 6.781954312593748 -8.273688282120279 0.0 0.0 0.0 37.47048819396426 -36.13671628571036 -65.19364731951761 140.31007857841823 1.1594461567018917e-15 7.181169823065641e-15 0.0 0.0 0.0 0.0 0.0 7.951386703658792e-16 0.6356959150616903 18.47049270530581 -9.022387354788778 -2.732328169858702 21.218512752261415 8.682423150598172 0.0 0.0 -3.975693351829396e-16
0.0 0.0 812.2012532178227 32.62875387693173 -24.540167200433235 7.948485059818496 0.0 0.0 0.0 0.44581219160819546 12.841504651318793 -2.5779921223193027 -0.2919697928473855 26.08753274896074 -4.53844646172941 0.0 0.0 0.0 0.0 0.0 0.0 0.5861081067699099 16.86803512282728 -2.1989268395532244 -4.072135338409576 1.6886029181166866e-15 6.003160788831044e-17 0.0 0.0 -3.9756933518293955e-16 -94.46085971990033 11.12151330206469 54.235905942518635 -102.45007153132445 8.942924014248944e-15 9.75466416441646e-16 0.0 0.0 7.951386703658791e-16 0.0 0.0 -3.9756933518293955e-16 -6.835534988444701 6.888607637068483 -8.346878204383218 0.0 0.0 -3.9756933518293955e-16 37.42710979396341 -36.055821377022276 -65.14970589246722 140.33593355416428 -9.186546536285413e-15 -2.359965819017002e-14 0.0 0.0 0.0 0.0 0.0 0.0 0.6406529232966609 18.474710365295895 -9.116532082581884 -2.7149457754354147 20.877617633794763 8.644670920749366 -3.1805546814635168e-15 3.310429723537619e-32 -1.1927080055488188e-15
